<svg xmlns="http://www.w3.org/2000/svg" xmlns:xlink="http://www.w3.org/1999/xlink" width="129" height="129" viewBox="0 0 129 129">
    <defs>
        <path id="a" d="M0 .263h128.757V129H0z"/>
        <path id="c" d="M0 129.737h128.757V1H0z"/>
    </defs>
    <g fill="none" fill-rule="evenodd" transform="translate(0 -.999)">
        <g transform="translate(0 .737)">
            <mask id="b" fill="#fff">
                <use xlink:href="#a"/>
            </mask>
            <path fill="#272727" d="M65.024 92.237v10.472h.024v25.611c0 .382-.298.68-.679.68C28.876 129 0 100.124 0 64.631c0-22.73 11.61-43.319 31.055-55.074A64 64 0 0 1 64.26.263c11.491 0 22.89 2.92 33.88 8.676a51.413 51.413 0 0 1 21.998 22.022c7.75 14.891 10.342 30.711 7.497 45.75-2.623 13.77-9.867 26.533-20.398 35.934a.711.711 0 0 1-.466.17.641.641 0 0 1-.488-.214.725.725 0 0 1-.18-.518.632.632 0 0 1 .213-.449c22.537-20.105 27.481-51.534 12.607-80.082a50.571 50.571 0 0 0-21.415-21.447C86.704 4.466 75.531 1.606 64.3 1.606h-.004a62.829 62.829 0 0 0-32.522 9.075C12.728 22.231 1.36 42.398 1.36 64.631c0 33.85 26.474 61.513 60.27 62.981l2.087.091V103.14h.017V92.15" mask="url(#b)"/>
        </g>
        <path fill="#000" d="M85.85 41.878c-.638 0-1.154.516-1.154 1.153v4.288c0 .636.516 1.153 1.153 1.153h18.411c.637 0 1.152-.517 1.152-1.153v-.126a5.32 5.32 0 0 0-5.314-5.315H85.85zm0 8.07c-.638 0-1.154.517-1.154 1.154V63.46c0 .637.516 1.153 1.153 1.153h19.897a1.153 1.153 0 0 0 1.12-1.433l-3.09-12.358a1.154 1.154 0 0 0-1.119-.874H85.85zM110.06 74.16c-.638 0-1.153.517-1.153 1.153v2.144a3.3 3.3 0 0 0 3.296 3.297h2.144c.637 0 1.152-.516 1.152-1.153v-4.288c0-.636-.515-1.153-1.152-1.153h-4.287zM31.498 86.266c-5.156 0-9.35 4.195-9.35 9.35 0 5.156 4.194 9.35 9.35 9.35s9.35-4.194 9.35-9.35c0-5.155-4.194-9.35-9.35-9.35zm66.582 0c-5.155 0-9.349 4.195-9.349 9.35 0 5.156 4.194 9.35 9.35 9.35 5.155 0 9.35-4.194 9.35-9.35 0-5.155-4.195-9.35-9.35-9.35zm0 20.176c-5.969 0-10.827-4.856-10.827-10.826 0-.637-.512-1.279-1.149-1.279h-42.63a1.151 1.151 0 0 0-1.152 1.168c.003 6.081-4.854 10.937-10.824 10.937s-10.827-4.856-10.827-10.826c0-.637-.513-1.279-1.15-1.279h-2.106a2.76 2.76 0 0 1-2.756-2.756V87.42c0-.637-.517-1.153-1.154-1.153h-.095a.74.74 0 0 1 0-1.477h3.964a.739.739 0 1 1 0 1.477h-.086c-.636 0-1.152.516-1.152 1.153v4.162a1.28 1.28 0 0 0 1.278 1.28h2.762c.492 0 .93-.313 1.09-.777a10.84 10.84 0 0 1 10.232-7.295 10.84 10.84 0 0 1 10.232 7.295c.16.464.598.776 1.09.776h39.245c.637 0 1.152-.517 1.152-1.153v-14.25a.74.74 0 0 1 1.478 0v14.25c0 .637.516 1.153 1.153 1.153h.911c.491 0 .93-.31 1.09-.776A10.84 10.84 0 0 1 98.08 84.79a10.84 10.84 0 0 1 10.232 7.296c.161.464.6.775 1.09.775h4.946c.637 0 1.152-.516 1.152-1.153v-8.323c0-.637-.515-1.153-1.152-1.153h-2.145a4.778 4.778 0 0 1-4.773-4.774v-4.035c0-.407.331-.738.738-.738h5.882a1.155 1.155 0 0 0 1.098-1.507 7.316 7.316 0 0 0-6.975-5.087H85.848c-.637 0-1.153.516-1.153 1.153v2.144a.74.74 0 0 1-1.477 0V39.142a1.28 1.28 0 0 0-1.279-1.279H17.414a1.28 1.28 0 0 0-1.278 1.28v30.244a.74.74 0 0 1-1.477 0V39.142a2.758 2.758 0 0 1 2.755-2.756H81.94a2.76 2.76 0 0 1 2.756 2.756v.106c0 .637.516 1.153 1.153 1.153h14.25a6.8 6.8 0 0 1 6.79 6.792v2.017a.74.74 0 0 1-.583.722 1.154 1.154 0 0 0-.879 1.408l3.128 12.513c.113.452.485.791.945.861 4.263.648 7.478 4.392 7.478 8.708v20.176a.74.74 0 0 1-.739.74h-6.182a1.151 1.151 0 0 0-1.153 1.167c.003 6.081-4.854 10.937-10.824 10.937z"/>
        <mask id="d" fill="#fff">
            <use xlink:href="#c"/>
        </mask>
        <path fill="#000" d="M45.93 47.67h5.194v-3.597H45.93v3.597zm-.598 1.194c-6.708.008-12.171 5.471-12.179 12.178v2.599h30.748v-2.598c-.009-6.708-5.471-12.171-12.179-12.179h-6.39zM29.959 68.432h37.137v-3.597H29.959v3.597zm-.597 1.194a.599.599 0 0 1-.598-.597v-4.792c0-.329.269-.596.598-.596h2.597v-2.598a13.384 13.384 0 0 1 11.889-13.285l.888-.101v-4.182c0-.329.268-.597.597-.597h6.388c.33 0 .597.268.597.597v4.182l.888.101a13.385 13.385 0 0 1 11.89 13.287v2.596h2.596c.329 0 .597.267.597.596v4.792a.598.598 0 0 1-.597.597h-38.33zM46.754 85.227a.776.776 0 0 1 0-1.553h29.703a.776.776 0 0 1 0 1.553H46.754zM9.418 76.74a.776.776 0 0 1 0-1.553h25.46a.777.777 0 0 1 0 1.553H9.419z" mask="url(#d)"/>
    </g>
</svg>
