<svg xmlns="http://www.w3.org/2000/svg" viewBox="0 0 49.29 49.27"><defs><style>.cls-1{fill:#323b4b;}</style></defs><title>instagram</title><g id="Capa_2" data-name="Capa 2"><g id="_1_Menú" data-name="1 Menú"><path class="cls-1" d="M43.8,40.1c.32-.39.6-.78.89-1.19.15-.21.31-.42.46-.64.33-.5.63-1,.92-1.52.09-.15.18-.3.26-.45.3-.56.58-1.14.84-1.72l.18-.4c.24-.57.45-1.15.64-1.73.06-.18.13-.36.18-.54.16-.52.3-1,.42-1.57.07-.27.14-.55.19-.82.09-.43.16-.87.22-1.3s.12-.77.16-1.16,0-.69.06-1,.06-.94.06-1.42c0-.09,0-.18,0-.27s0-.46,0-.7c0-.47,0-.94-.08-1.41S49.05,21.39,49,21s-.1-.72-.17-1.08c-.11-.58-.26-1.16-.41-1.73,0-.16-.07-.32-.12-.48l0-.11c-.18-.59-.39-1.17-.61-1.75l-.18-.5c-.21-.51-.45-1-.69-1.49-.11-.24-.22-.49-.34-.72s-.41-.71-.62-1.06-.4-.7-.63-1l-.46-.65c-.32-.44-.64-.89-1-1.31l-.36-.41c-.4-.47-.81-.93-1.24-1.36l-.08-.09-.37-.34c-.43-.4-.86-.81-1.32-1.18-.28-.24-.57-.45-.86-.67s-.66-.51-1-.74-.8-.51-1.2-.76c-.2-.11-.39-.25-.59-.37L36.48,3c-.42-.23-.85-.44-1.28-.64L34.27,2l-1.1-.42c-.41-.15-.83-.3-1.24-.43S31.38,1,31.11.87C30.59.73,30.06.6,29.53.49L29,.39c-.61-.11-1.21-.2-1.82-.26l-.45,0C26.07,0,25.44,0,24.8,0h-.52c-.59,0-1.18,0-1.77.08l-.79.1c-.49.06-1,.12-1.47.21s-.75.15-1.12.24-.55.1-.82.17l-.18,0L17.7,1c-.72.21-1.41.46-2.1.73a2.34,2.34,0,0,0-.24.09c-.39.15-.77.35-1.15.53s-.72.31-1.07.5-.83.49-1.25.74-.57.32-.85.5c-.5.33-1,.7-1.44,1.06-.18.14-.36.25-.53.4A23.15,23.15,0,0,0,7.26,7.16l0,0c-.52.52-1,1.07-1.48,1.63L5.58,9a21.41,21.41,0,0,0-1.29,1.72l-.06.08a24.36,24.36,0,0,0-3,6.24l-.06.17C.91,18,.7,18.7.54,19.45s-.25,1.4-.34,2.1c0,.22-.05.45-.07.69,0,.49-.08,1-.1,1.49,0,.24,0,.47,0,.71,0,.67,0,1.33.07,2,0,.24,0,.48.07.73,0,.5.12,1,.2,1.5,0,.24.08.48.13.71.13.7.3,1.39.49,2.07l0,.12c0,.14.09.28.13.42l.06.18h0l0,.09c.08.24.15.49.24.73a1,1,0,0,0,1.28.6,1,1,0,0,0,.61-1.28c-.17-.47-.32-.94-.46-1.41-.18-.64-.33-1.28-.46-1.92,0-.21-.07-.42-.11-.63-.07-.48-.14-.95-.19-1.42,0-.21,0-.43-.06-.64C2,25.68,2,25.06,2,24.45c0-.21,0-.42,0-.63q0-.7.09-1.41c0-.2,0-.4.07-.6a22.53,22.53,0,0,1,.87-4,.56.56,0,0,1,0-.12,22.93,22.93,0,0,1,2.8-5.76l0,0c.37-.55.78-1.09,1.2-1.6l.13-.17c.45-.53.92-1,1.41-1.55s1.08-1,1.65-1.49l.55-.4c.42-.32.83-.64,1.27-.93.26-.18.55-.33.83-.5s.72-.45,1.1-.65.68-.32,1-.48.67-.33,1-.47.52-.17.77-.27a24.55,24.55,0,0,1,2.66-.78c.35-.08.71-.17,1.07-.23s.87-.14,1.31-.19l.76-.09c.53,0,1.07-.07,1.6-.07a4.21,4.21,0,0,1,.5,0c.58,0,1.16,0,1.73.08l.43,0c.55.06,1.11.14,1.66.24l.53.09c.48.1,1,.23,1.44.35l.76.21c.38.12.76.26,1.13.4s.68.25,1,.39.58.26.87.4.78.37,1.16.58.52.3.77.46.74.44,1.1.69.62.44.93.68.54.4.79.61c.42.34.82.71,1.21,1.09.14.13.28.25.41.39.4.4.78.82,1.14,1.25.11.13.23.25.33.38.32.39.61.8.9,1.2.14.2.29.39.43.6s.39.63.58,1,.39.64.57,1,.2.44.31.66c.22.45.44.9.63,1.36l.17.48c.2.52.39,1.05.55,1.59.06.19.1.37.15.55.14.53.27,1.06.37,1.59.07.32.11.65.16,1s.12.76.15,1.14.06.86.08,1.29,0,.6,0,.89,0,.87-.05,1.31,0,.63-.06.95-.09.71-.14,1.07-.12.79-.2,1.19c0,.25-.12.51-.18.76-.11.48-.23,1-.38,1.43,0,.18-.12.34-.17.51-.18.53-.37,1.06-.59,1.58,0,.13-.12.26-.17.39-.24.52-.49,1-.76,1.55l-.25.44c-.26.47-.54.92-.83,1.37l-.45.62c-.25.36-.51.72-.79,1.06s-.47.56-.72.83a22.36,22.36,0,0,1-2.07,2.06c-.17.15-.33.31-.5.45s-.61.45-.91.67-.59.46-.9.66-.74.45-1.11.67-.54.33-.82.48c-.46.24-.94.45-1.42.66l-.62.29a20.8,20.8,0,0,1-2.1.73c-.67.2-1.35.36-2,.5l-.22,0c-.65.12-1.31.22-2,.28h-.07a22.91,22.91,0,0,1-6.4-.3l-.13,0a22.93,22.93,0,0,1-3.91-1.14l-.56-.24c-.43-.18-.85-.38-1.27-.59-.19-.09-.39-.18-.57-.28-.54-.29-1.07-.6-1.59-.94-.19-.12-.36-.25-.54-.37-.39-.27-.77-.55-1.15-.84l-.5-.4c-.5-.42-1-.86-1.46-1.32s-.7-.71-1-1.08a1,1,0,0,0-1.42-.08A1,1,0,0,0,6.19,41c.16.2.35.37.52.56l.06.07h0l.13.14.3.32.09.08c.51.5,1,1,1.58,1.42l.57.46c.4.31.8.61,1.22.89.2.14.4.29.6.42.56.36,1.13.7,1.72,1,.21.12.43.22.65.33.44.22.89.43,1.35.62l.64.27c.66.26,1.32.5,2,.7s1.48.39,2.23.54l.18,0a24.43,24.43,0,0,0,6.93.33h.1c.71-.08,1.42-.18,2.13-.31l.24-.05c.72-.14,1.43-.3,2.14-.51l.07,0c.77-.23,1.54-.5,2.29-.8.2-.08.38-.19.58-.27.55-.24,1.1-.49,1.64-.77.29-.15.55-.33.83-.49s.86-.48,1.27-.76.6-.44.9-.66a24.84,24.84,0,0,0,2.91-2.45c.11-.1.21-.21.31-.32l.13-.14c.19-.2.36-.42.54-.63S43.56,40.4,43.8,40.1Z"/><path class="cls-1" d="M30.16,9.91h-11a9.2,9.2,0,0,0-9.2,9.2v11a9.2,9.2,0,0,0,9.2,9.21h11a9.2,9.2,0,0,0,9.2-9.21v-11A9.2,9.2,0,0,0,30.16,9.91ZM36.6,30.15a6.44,6.44,0,0,1-6.44,6.44h-11a6.44,6.44,0,0,1-6.44-6.44v-11a6.45,6.45,0,0,1,6.44-6.44h11a6.45,6.45,0,0,1,6.44,6.44Z"/><path class="cls-1" d="M24.64,17.27A7.36,7.36,0,1,0,32,24.63,7.37,7.37,0,0,0,24.64,17.27Zm0,12a4.6,4.6,0,1,1,4.6-4.6A4.61,4.61,0,0,1,24.64,29.23Z"/><circle class="cls-1" cx="32.55" cy="16.72" r="0.98"/></g></g></svg>