<svg xmlns="http://www.w3.org/2000/svg" xmlns:xlink="http://www.w3.org/1999/xlink" width="129" height="129" viewBox="0 0 129 129">
    <defs>
        <path id="a" d="M0 .263h128.757V129H0z"/>
    </defs>
    <g fill="none" fill-rule="evenodd">
        <g transform="translate(0 -.262)">
            <mask id="b" fill="#fff">
                <use xlink:href="#a"/>
            </mask>
            <path fill="#272727" d="M120.138 30.96A51.406 51.406 0 0 0 98.14 8.94C87.15 3.182 75.75.263 64.26.263a63.998 63.998 0 0 0-33.205 9.294C11.61 21.313 0 41.9 0 64.63 0 100.124 28.875 129 64.37 129c.38 0 .68-.298.68-.68v-15.207h-1.333v14.59l-2.087-.091C27.832 126.145 1.36 98.48 1.36 64.63c0-22.232 11.37-42.4 30.414-53.95a62.813 62.813 0 0 1 32.522-9.074h.004c11.232 0 22.404 2.859 33.21 8.499a50.569 50.569 0 0 1 21.414 21.446c14.874 28.548 9.93 59.977-12.607 80.082a.632.632 0 0 0-.213.449c-.006.11.01.324.18.518a.643.643 0 0 0 .488.214c.102 0 .3-.024.466-.17 10.531-9.401 17.775-22.163 20.398-35.935 2.845-15.038.252-30.857-7.497-45.75" mask="url(#b)"/>
        </g>
        <path fill="#000" d="M76.818 16.944a5.526 5.526 0 0 0-5.472 4.823l-.633 5.01.97.294c1.217.369 2.422.839 3.582 1.398l1.502.723.667-5.28a.755.755 0 0 1 .748-.659h11.631v-6.309H76.818zM67.91 48.966h6.36l2.286-18.101-.708-.395a23.6 23.6 0 0 0-3.93-1.74l-1.39-.469-2.618 20.705zm7.88 0h12.136l-.205-1.377a23.555 23.555 0 0 0-8.057-14.473l-1.69-1.437-2.184 17.287zm-37.117 1.509c-.928 0-1.683.754-1.683 1.682v5.374h54.778v-5.374c0-.928-.755-1.682-1.68-1.682H61.967a.755.755 0 0 1 0-1.509h4.42l2.66-21.034-1.162-.174a23.754 23.754 0 0 0-3.507-.261c-11.6 0-21.637 8.638-23.343 20.092l-.205 1.377h5.502a.755.755 0 0 1 0 1.509h-7.66zm3.725 19.531l1.598-1.049a16.604 16.604 0 0 1 9.14-2.719c3.211 0 6.326.911 9.007 2.634l1.601 1.029 1.372-10.861H40.948l1.45 10.966zm22.692 1.28l.467.42a15.11 15.11 0 0 0 3.954 2.564l1.477.658 2.008-15.888h-6.359L65.09 71.286zm7.374 3.997l1.18.158a15.43 15.43 0 0 0 2.047.139c3.803 0 7.44-1.41 10.24-3.97l.323-.295 1.624-12.275H74.515l-2.052 16.243zm-11.085 25.364l6.258.791 3.166-25.046-.895-.33a16.469 16.469 0 0 1-3.45-1.752l-1.615-1.077-3.464 27.414zm-8.243-32.901a15.16 15.16 0 0 0-10 3.76l-.483.423 5.244 39.661h33.031l4.996-37.789-2.09 1.172a16.69 16.69 0 0 1-10.363 1.966l-1.196-.158-3.235 25.595a.757.757 0 0 1-.849.653l-7.75-.979a.757.757 0 0 1-.654-.844L63.5 71.818l-.49-.42a15.169 15.169 0 0 0-9.875-3.652zm-5.9 45.354a.757.757 0 0 1-.748-.656L39.425 59.04h-3.19a.755.755 0 0 1-.754-.754v-6.129a3.212 3.212 0 0 1 2.901-3.177l.963-.087.12-.959c1.573-12.511 12.283-21.945 24.914-21.945 1.216 0 2.443.089 3.647.264l1.21.176.613-4.85a7.038 7.038 0 0 1 6.97-6.144h13.748c.416 0 .754.338.754.754v7.818a.755.755 0 0 1-.754.754H78.848l-.676 5.344.593.415c5.811 4.066 9.647 10.413 10.526 17.414l.12.96.963.086a3.211 3.211 0 0 1 2.902 3.177v6.129a.755.755 0 0 1-.755.754h-3.123l-7.06 53.404a.758.758 0 0 1-.749.656H47.235z"/>
    </g>
</svg>
