<svg xmlns="http://www.w3.org/2000/svg" xmlns:xlink="http://www.w3.org/1999/xlink" width="129" height="129" viewBox="0 0 129 129">
    <defs>
        <path id="a" d="M0 .263h128.757V129H0z"/>
    </defs>
    <g fill="none" fill-rule="evenodd">
        <g transform="translate(0 -.262)">
            <mask id="b" fill="#fff">
                <use xlink:href="#a"/>
            </mask>
            <path fill="#272727" d="M120.139 30.961A51.406 51.406 0 0 0 98.14 8.94C87.15 3.182 75.75.263 64.26.263a64.001 64.001 0 0 0-33.206 9.294C11.61 21.313 0 41.901 0 64.631 0 100.124 28.876 129 64.369 129c.38 0 .68-.298.68-.68v-15.207h-1.333v14.59l-2.086-.091C27.833 126.145 1.36 98.481 1.36 64.631c0-22.232 11.369-42.4 30.414-53.95a62.808 62.808 0 0 1 32.522-9.074h.003c11.233 0 22.404 2.859 33.209 8.499a50.566 50.566 0 0 1 21.416 21.446c14.874 28.548 9.93 59.977-12.607 80.082a.632.632 0 0 0-.213.449c-.006.11.01.324.18.518a.643.643 0 0 0 .488.214c.1 0 .3-.024.466-.17 10.53-9.401 17.775-22.163 20.398-35.935 2.844-15.038.252-30.857-7.497-45.749" mask="url(#b)"/>
        </g>
        <path fill="#000" d="M43.307 34.191a6.784 6.784 0 0 0-6.776 6.776 6.784 6.784 0 0 0 6.776 6.776h28.615a6.784 6.784 0 0 0 6.777-6.776 6.784 6.784 0 0 0-6.777-6.776h-3.735a.749.749 0 0 1 0-1.495c2.169.015 4.637.051 4.929.087l.786.097.01-.79v-6.408c0-4.29-3.49-7.78-7.78-7.78H49.097c-4.29 0-7.781 3.49-7.781 7.78V32.9l.8-.116c.545-.04 12.339-.074 20.128-.087a.748.748 0 0 1-.001 1.495H43.307zm-5.89 20.464a26.56 26.56 0 0 0-4.772 14.105l-.031.73h50.003l-.032-.73a26.574 26.574 0 0 0-4.773-14.105l-3.938-5.639-.443.082a8.28 8.28 0 0 1-1.51.141H43.308a8.26 8.26 0 0 1-1.508-.14l-.442-.083-3.94 5.64zM86.66 81.708c-.918 0-1.878.176-2.856.522-2.017.716-3.441 1.943-4.232 3.647-1.094 2.355-.638 4.961-.198 6.13l2.646 7.013 14.19-5.355-2.645-7.013c-.647-1.71-2.92-4.944-6.905-4.944zm-54.04 20.595c0 5.534 4.5 10.036 10.034 10.036h29.923c4.658 0 8.776-3.296 9.793-7.837l.044-.205-2.29-6.068H38.098a.75.75 0 0 1-.748-.748.75.75 0 0 1 .748-.748H79.56l-1.585-4.198c-.734-1.943-1.525-8.177 4.264-11.236l.373-.197V70.985H32.619v31.318zm49.928-1.885l2.647 7.013c.59 1.561 3.177 4.983 7.03 4.983.912 0 1.842-.193 2.762-.574 6.793-2.81 4.663-9.06 4.398-9.764l-2.646-7.013-14.191 5.355zm9.738 13.42c-4.874 0-7.648-3.755-8.434-5.74l-.535-1.353-.723 1.263c-2.057 3.593-5.896 5.826-10.017 5.826H42.653c-6.358 0-11.53-5.173-11.53-11.53V69.911a28 28 0 0 1 5.07-16.113l3.679-5.27-.664-.382a8.302 8.302 0 0 1-4.172-7.18 8.26 8.26 0 0 1 4.413-7.312l.372-.197v-7.776c0-5.115 4.16-9.276 9.276-9.276h17.035c5.115 0 9.277 4.161 9.277 9.276v7.775l.372.197a8.264 8.264 0 0 1 4.413 7.313c0 2.953-1.6 5.705-4.174 7.18l-.664.381 3.68 5.27a27.998 27.998 0 0 1 5.07 16.114v10.614l.82-.142a9.057 9.057 0 0 1 1.533-.13c3.76 0 7.177 2.358 8.502 5.871l5.82 15.423c1.097 2.975.752 6.083-.951 8.523-1.668 2.393-4.418 3.766-7.544 3.766h-.001z"/>
        <path fill="#000" d="M49.504 77.745c-.695 0-1.27.225-1.708.67-1.29 1.308-.488 4.89 2.76 8.136a13.652 13.652 0 0 0 2.858 2.212l1.177.673-.133-1.349c-.165-1.682.5-3.708 1.875-5.707l.32-.466-.388-.41c-.035-.039-4.04-3.759-6.76-3.759m16.235.033c-2.01 0-4.767 1.705-6.45 3.39-3.23 3.23-4.038 6.811-2.765 8.13.455.47 1.055.707 1.788.707 2.374 0 5.465-2.558 6.362-3.454 1.138-1.139 4.943-5.855 2.766-8.129-.282-.293-.805-.644-1.7-.644m-8.16 13.587c-3.62 0-5.706-1.378-8.084-3.757-1.68-1.68-2.914-3.627-3.47-5.483-.624-2.08-.377-3.768.693-4.75.744-.684 1.618-1.016 2.673-1.016 3.56 0 7.695 3.847 7.736 3.886l.5.477.486-.492c.006-.002 4.451-3.703 8.001-3.703.977 0 1.761.28 2.397.852.683.615 1.044 1.477 1.072 2.56.06 2.294-1.416 5.233-3.853 7.67-2.378 2.38-4.475 3.756-8.152 3.756"/>
    </g>
</svg>
